<?xml version="1.0" encoding="UTF-8"?>
<svg id="Layer_2" data-name="Layer 2" xmlns="http://www.w3.org/2000/svg" viewBox="0 0 1231.52 184.52">
  <defs>
    <style>
      .cls-1 {
        fill: #6849fc;
      }
    </style>
  </defs>
  <g id="Layer_1-2" data-name="Layer 1">
    <g>
      <path class="cls-1" d="m189.96,96.62h-62.06c-.75,0-1.21-.81-.84-1.45l24.55-42.52-25.39-43.97h-50.77l-25.39,43.97,24.52,42.47c.37.65-.09,1.45-.84,1.45H25.39L0,140.54l25.39,43.97h50.77l25.39-43.97-24.52-42.47c-.37-.65.09-1.45.84-1.45h46.45c.35,0,.67.19.84.49l50.28,86.06h65.08l-50.56-86.55Z"/>
      <g>
        <path class="cls-1" d="m362.77,130.31v-.44h-3.78c-.89,2.08-2.45,4.6-4.67,7.56-2.22,2.97-5.6,5.52-10.12,7.67-4.52,2.15-10.64,3.23-18.35,3.23s-14.68-1.37-20.9-4.11c-6.23-2.74-11.16-6.71-14.79-11.9-3.63-5.19-5.45-11.56-5.45-19.13s1.81-13.64,5.45-18.68c3.63-5.04,8.63-8.86,15.01-11.45,6.37-2.59,13.64-3.89,21.79-3.89h31.8v-6.67c0-5.78-1.78-10.49-5.34-14.12-3.56-3.63-9.12-5.45-16.68-5.45s-13.01,1.74-16.79,5.23c-3.78,3.48-6.26,7.97-7.45,13.45l-23.57-7.78c1.78-5.78,4.63-11.04,8.56-15.79,3.93-4.74,9.15-8.56,15.68-11.45,6.52-2.89,14.53-4.34,24.02-4.34,14.38,0,25.68,3.6,33.91,10.78,8.23,7.19,12.34,17.61,12.34,31.24v71.17h-20.8l.12-15.14Zm-32.69-2.89c8.45,0,15.34-2.41,20.68-7.23,5.34-4.82,8.01-11.3,8.01-19.46v-2.22h-30.24c-5.49,0-9.93,1.19-13.34,3.56-3.41,2.37-5.11,5.86-5.11,10.45s1.78,8.04,5.34,10.79c3.56,2.75,8.45,4.11,14.68,4.11Z"/>
        <path class="cls-1" d="m438.68,146.99c-8.45,0-15.94-1.89-22.46-5.67-6.52-3.78-11.56-9.12-15.12-16.01-3.56-6.9-5.34-14.93-5.34-24.13V35.36h25.35v63.82c0,8.9,2.19,15.49,6.56,19.79,4.37,4.3,10.56,6.45,18.57,6.45,9.04,0,16.19-2.96,21.46-8.9,5.26-5.93,7.89-14.46,7.89-25.57v-55.59h25.35v109.85h-24.91v-15.34h-3.78c-1.93,4-5.45,7.86-10.56,11.56-5.11,3.71-12.79,5.56-23.02,5.56Z"/>
        <path class="cls-1" d="m509.55,90.73v-3.34c0-11.56,2.3-21.46,6.89-29.69,4.59-8.23,10.75-14.53,18.46-18.9,7.71-4.37,16.16-6.56,25.35-6.56,10.38,0,18.27,1.85,23.68,5.56,5.41,3.71,9.37,7.71,11.9,12.01h3.78v-14.45h24.91v124.46c0,7.26-2.08,13.01-6.23,17.23-4.15,4.22-9.79,6.34-16.9,6.34h-73.83v-22.24h65.16c4.3,0,6.45-2.23,6.45-6.67v-25.51h-3.78c-1.63,2.52-3.86,5.08-6.67,7.67-2.82,2.59-6.52,4.78-11.12,6.56-4.6,1.78-10.38,2.67-17.34,2.67-9.19,0-17.64-2.19-25.35-6.56-7.71-4.37-13.86-10.67-18.46-18.9-4.6-8.23-6.89-18.12-6.89-29.69Zm57.82,32.69c9.19,0,16.82-2.92,22.9-8.78,6.08-5.86,9.12-14.05,9.12-24.57v-2.22c0-10.67-3-18.9-9.01-24.68-6-5.78-13.68-8.67-23.02-8.67s-16.87,2.89-23.02,8.67c-6.15,5.78-9.23,14.01-9.23,24.68v2.22c0,10.53,3.07,18.72,9.23,24.57,6.15,5.86,13.82,8.78,23.02,8.78Z"/>
        <path class="cls-1" d="m639.56,145.21V35.36h25.13v12.23h3.78c1.92-3.7,5.15-7,9.67-9.9,4.52-2.89,10.56-4.34,18.12-4.34,8,0,14.45,1.63,19.35,4.89,4.89,3.26,8.6,7.41,11.12,12.45h3.56c2.52-5.04,6.15-9.19,10.9-12.45,4.74-3.26,11.48-4.89,20.23-4.89,6.82,0,13.01,1.48,18.57,4.45,5.56,2.97,10.01,7.34,13.34,13.12,3.33,5.78,5,12.97,5,21.57v72.71h-25.57v-70.94c0-6.37-1.71-11.23-5.11-14.57-3.41-3.34-8.15-5-14.23-5-6.67,0-11.98,2.19-15.9,6.56-3.93,4.37-5.89,10.64-5.89,18.79v65.15h-25.35v-70.94c0-6.37-1.7-11.23-5.11-14.57-3.41-3.34-8.15-5-14.23-5-6.82,0-12.16,2.19-16.01,6.56-3.86,4.37-5.78,10.64-5.78,18.79v65.15h-25.57Z"/>
        <path class="cls-1" d="m862.16,148.32c-10.97,0-20.65-2.34-29.02-7.01-8.38-4.67-14.9-11.26-19.57-19.79-4.67-8.52-7-18.49-7-29.91v-2.67c0-11.56,2.3-21.57,6.89-30.02,4.59-8.45,11.04-15.01,19.35-19.68,8.3-4.67,17.86-7,28.69-7s20.01,2.33,28.02,7c8.01,4.67,14.23,11.23,18.68,19.68,4.45,8.45,6.67,18.31,6.67,29.58v9.12h-82.5c.3,8.6,3.34,15.49,9.12,20.68,5.78,5.19,12.9,7.78,21.35,7.78s14.45-1.82,18.46-5.45c4-3.63,7.04-7.75,9.12-12.34l21.13,10.89c-2.08,4-5.08,8.27-9,12.79-3.93,4.52-9.16,8.38-15.68,11.56-6.52,3.19-14.75,4.78-24.68,4.78Zm-29.58-70.05h56.26c-.59-7.26-3.37-13.04-8.34-17.34-4.97-4.3-11.38-6.45-19.24-6.45s-14.68,2.15-19.57,6.45c-4.89,4.3-7.93,10.08-9.12,17.34Z"/>
        <path class="cls-1" d="m925.53,145.21V35.36h25.13v15.34h3.78c1.92-4.15,5.41-8.08,10.45-11.79,5.04-3.7,12.67-5.56,22.9-5.56,8.45,0,15.93,1.93,22.46,5.78,6.52,3.86,11.6,9.19,15.23,16.01,3.63,6.82,5.45,14.9,5.45,24.24v65.82h-25.57v-63.82c0-8.89-2.19-15.53-6.56-19.9-4.38-4.37-10.56-6.56-18.57-6.56-9.04,0-16.16,3-21.35,9.01-5.19,6-7.78,14.56-7.78,25.68v55.59h-25.57Z"/>
        <path class="cls-1" d="m1082.09,145.21c-7.12,0-12.79-2.11-17.01-6.34-4.23-4.23-6.34-9.97-6.34-17.23V56.48h-24.47v-21.12h24.47V0h25.57v35.36h31.58v21.12h-31.58v60.93c0,4.45,2.07,6.67,6.23,6.67h22.01v21.13h-30.46Z"/>
        <path class="cls-1" d="m1174.37,148.32c-10.97,0-20.79-2.26-29.46-6.78-8.67-4.52-15.49-10.97-20.46-19.35-4.97-8.37-7.45-18.42-7.45-30.13v-3.56c0-11.71,2.48-21.79,7.45-30.24,4.97-8.45,11.79-14.9,20.46-19.35,8.67-4.45,18.49-6.67,29.46-6.67s20.75,2.22,29.35,6.67c8.6,4.45,15.38,10.9,20.35,19.35,4.96,8.45,7.45,18.53,7.45,30.24v3.56c0,11.71-2.48,21.76-7.45,30.13-4.97,8.38-11.75,14.83-20.35,19.35-8.6,4.52-18.38,6.78-29.35,6.78Zm0-22.68c9.34,0,16.97-3,22.9-9.01,5.93-6,8.89-14.42,8.89-25.24v-2.23c0-10.82-2.97-19.23-8.89-25.24-5.93-6-13.56-9.01-22.9-9.01s-16.98,3-22.9,9.01c-5.93,6-8.9,14.42-8.9,25.24v2.23c0,10.82,2.96,19.23,8.9,25.24,5.93,6,13.56,9.01,22.9,9.01Z"/>
      </g>
    </g>
  </g>
</svg>